<svg xmlns="http://www.w3.org/2000/svg" width="241" height="55" viewBox="0 0 241 55" fill="none">
  <g clip-path="url(#clip0_337_36899)">
    <path d="M40.6794 54.1904L35.6805 41.1006H11.1484L6.14954 54.1904H0L20.7405 0.8125H26.1544L46.8195 54.1904H40.67H40.6794ZM33.5584 35.5364L23.4569 9.17756L13.3554 35.5364H33.5678H33.5584Z" fill="black"/>
    <path d="M52.0094 54.1904V0.8125H73.4762C81.465 0.8125 87.9541 7.31027 87.9541 15.2887C87.9541 19.8343 85.8979 23.8801 82.3799 26.4169C87.1618 28.9444 90.1611 33.7918 90.1611 39.205C90.1611 47.4757 83.4362 54.1998 75.1645 54.1998H52L52.0094 54.1904ZM75.174 48.6263C80.2483 48.6263 84.3794 44.3919 84.3794 39.1956C84.3794 33.9992 80.2483 29.7648 75.174 29.7648H57.8006V48.6263H75.174ZM73.4762 24.2007C78.2676 24.2007 82.1724 20.2021 82.1724 15.2887C82.1724 10.3753 78.2676 6.37663 73.4762 6.37663H57.7911V24.2007H73.4762Z" fill="black"/>
    <path d="M122.398 55C106.977 55 94.8945 42.9192 94.8945 27.5C94.8945 12.0808 106.977 0 122.398 0C137.819 0 149.901 12.0808 149.901 27.5C149.901 42.9192 137.819 55 122.398 55ZM122.398 5.63958C110.221 5.63958 100.686 15.2401 100.686 27.5C100.686 39.7599 110.221 49.3604 122.398 49.3604C134.574 49.3604 144.119 39.7599 144.119 27.5C144.119 15.2401 134.584 5.63958 122.398 5.63958Z" fill="black"/>
    <path d="M176.544 55.0015C164.717 55.0015 156.766 47.3814 156.766 36.0363V0.8125H162.547V36.0363C162.547 44.3825 167.782 49.3619 176.535 49.3619C185.287 49.3619 190.598 44.3825 190.598 36.0363V0.8125H196.379V36.0363C196.379 47.3814 188.4 55.0015 176.525 55.0015H176.544Z" fill="black"/>
    <path d="M218.044 54.1904V6.37663H201.859V0.8125H240.096V6.37663H223.911V54.1904H218.044Z" fill="black"/>
  </g>
  <defs>
    <clipPath id="clip0_337_36899">
      <rect width="240.096" height="55" fill="white"/>
    </clipPath>
  </defs>
</svg>