<svg width="1679" height="175" viewBox="0 0 1679 175" fill="none" xmlns="http://www.w3.org/2000/svg">
<g clip-path="url(#clip0_337_36929)">
<path d="M44.3065 64.4666V35.3H11.5814V64.4666H4.43848V0.951172H11.5814V28.3866H44.3065V0.951172H51.4495V64.4666H44.3065Z" fill="black"/>
<path d="M50.1716 2.23535V63.1827H45.5731V34.016H10.3035V63.1827H5.70508V2.23535H10.3035V29.6594H45.5731V2.23535H50.1716Z" fill="black"/>
<path d="M63.9785 64.4666V0.951172H101.028V7.87596H71.1215V28.9943H98.8602V35.9076H71.1215V57.5533H101.45V64.4666H63.9785Z" fill="black"/>
<path d="M100.183 58.8375V63.1941H65.2559V2.23535H99.7496V6.59201H69.8543V30.2785H97.5816V34.6351H69.8543V58.8375H100.183Z" fill="black"/>
<path d="M110.179 64.4666V0.951172H117.322V57.5533H145.916V64.4666H110.179Z" fill="black"/>
<path d="M144.638 58.8375V63.1941H111.445V2.23535H116.044V58.8375H144.638Z" fill="black"/>
<path d="M152.899 64.4666V0.951172H160.042V57.5533H188.648V64.4666H152.899Z" fill="black"/>
<path d="M187.371 58.8375V63.1941H154.178V2.23535H158.776V58.8375H187.371Z" fill="black"/>
<path d="M220.393 65.4301C202.136 65.4301 187.839 51.0646 187.839 32.7208C187.839 14.377 202.136 0 220.393 0C238.65 0 252.947 14.3655 252.947 32.7093C252.947 51.0531 238.65 65.4186 220.393 65.4186V65.4301ZM220.393 7.00505C206.141 7.00505 194.97 18.298 194.97 32.7208C194.97 47.1436 206.13 58.4365 220.393 58.4365C234.656 58.4365 245.815 47.1436 245.815 32.7208C245.815 18.298 234.656 7.00505 220.393 7.00505Z" fill="black"/>
<path d="M189.105 32.7092C189.105 15.294 202.889 1.27246 220.393 1.27246C237.896 1.27246 251.68 15.294 251.68 32.7092C251.68 50.1243 237.896 64.1459 220.393 64.1459C202.889 64.1459 189.105 50.1243 189.105 32.7092ZM247.082 32.7092C247.082 17.736 235.386 5.72084 220.393 5.72084C205.4 5.72084 193.704 17.736 193.704 32.7092C193.704 47.6823 205.4 59.6975 220.393 59.6975C235.386 59.6975 247.082 47.6823 247.082 32.7092Z" fill="black"/>
<path d="M260.694 65.3384C263.549 65.3384 265.863 63.0131 265.863 60.1448C265.863 57.2764 263.549 54.9512 260.694 54.9512C257.84 54.9512 255.525 57.2764 255.525 60.1448C255.525 63.0131 257.84 65.3384 260.694 65.3384Z" fill="black"/>
<path d="M256.792 60.1446C256.792 57.9663 258.435 56.2236 260.694 56.2236C262.954 56.2236 264.597 57.9663 264.597 60.1446C264.597 62.3229 262.862 64.0656 260.694 64.0656C258.526 64.0656 256.792 62.3229 256.792 60.1446Z" fill="black"/>
<path d="M306.427 0.951172H299.284V64.4666H306.427V0.951172Z" fill="black"/>
<path d="M305.161 2.23535V63.1827H300.562V2.23535H305.161Z" fill="black"/>
<path d="M316.674 19.7994L315.967 0.951172H323.292L322.585 19.7994H316.674Z" fill="black"/>
<path d="M317.29 2.23535H321.968L321.364 18.5155H317.895L317.29 2.23535Z" fill="black"/>
<path d="M382.831 64.4666V13.6428L362.384 47.7508H360.159L339.711 13.6428V64.4666H332.568V0.951172H340.282L361.231 35.8044L382.17 0.951172H389.974V64.4666H382.831Z" fill="black"/>
<path d="M388.696 63.1941H384.098V9.03403L361.654 46.4783H360.878L338.433 9.03403V63.1941H333.835V2.23535H339.552L361.22 38.2809L382.888 2.23535H388.696V63.1827V63.1941Z" fill="black"/>
<path d="M466.858 64.4666L460.959 48.9661H432.296L426.397 64.4666H418.809L443.387 0.951172H449.982L474.457 64.4666H466.869H466.858ZM458.346 42.0528L446.684 11.4759L435.023 42.0528H458.357H458.346Z" fill="black"/>
<path d="M461.849 47.6936H431.428L425.529 63.1941H420.68L444.254 2.23535H449.103L472.586 63.1827H467.736L461.837 47.6822L461.849 47.6936ZM460.205 43.337L446.684 7.899L433.163 43.337H460.205Z" fill="black"/>
<path d="M532.662 65.4301C513.949 65.4301 499.846 51.3627 499.846 32.7208C499.846 14.0789 513.949 0 532.662 0C544.05 0 554.433 5.85856 559.762 15.2712L560.389 16.3833L554.08 20.0292L553.463 18.8597C549.629 11.6483 541.46 6.99358 532.662 6.99358C518.023 6.99358 506.989 18.0457 506.989 32.7093C506.989 47.3729 518.023 58.4251 532.662 58.4251C541.574 58.4251 549.801 53.6671 553.635 46.3181L554.251 45.1373L560.561 48.7831L559.956 49.8837C554.673 59.4798 544.221 65.4301 532.674 65.4301H532.662Z" fill="black"/>
<path d="M501.112 32.7092C501.112 15.294 514.2 1.27246 532.662 1.27246C543.844 1.27246 553.635 7.01637 558.655 15.9017L554.582 18.252C550.599 10.7654 542.19 5.70937 532.662 5.70937C516.722 5.70937 505.711 17.7246 505.711 32.6977C505.711 47.6708 516.722 59.686 532.662 59.686C542.281 59.686 550.771 54.5498 554.764 46.8912L558.838 49.2415C553.897 58.2071 544.016 64.1344 532.662 64.1344C514.2 64.1344 501.112 50.1129 501.112 32.6977V32.7092Z" fill="black"/>
<path d="M608.735 64.4666L602.836 48.9661H574.173L568.273 64.4666H560.686L585.264 0.951172H591.859L616.334 64.4666H608.746H608.735ZM600.223 42.0528L588.561 11.4759L576.9 42.0528H600.234H600.223Z" fill="black"/>
<path d="M603.726 47.6939H573.306L567.407 63.1944H562.558L586.132 2.24707H590.981L614.464 63.1944H609.614L603.715 47.6939H603.726ZM602.072 43.3372L588.551 7.89926L575.029 43.3372H602.072Z" fill="black"/>
<path d="M660.893 64.4666L646.333 39.4732H629.183V64.4666H622.04V0.951172H647.234C657.823 0.951172 666.449 9.60716 666.449 20.258C666.449 28.3522 661.303 35.5637 653.738 38.3152L669.142 64.4666H660.893ZM647.234 32.5599C653.887 32.5599 659.306 27.0452 659.306 20.258C659.306 13.4708 653.887 7.8645 647.234 7.8645H629.183V32.5599H647.234Z" fill="black"/>
<path d="M647.063 38.2007H627.905V63.1941H623.307V2.23535H647.223C657.104 2.23535 665.16 10.3296 665.16 20.2582C665.16 28.5243 659.523 35.495 651.81 37.5816L666.895 63.1827H661.611L647.052 38.1892L647.063 38.2007ZM627.905 33.844H647.234C654.605 33.844 660.585 27.7447 660.585 20.2582C660.585 12.7716 654.605 6.59201 647.234 6.59201H627.905V33.844Z" fill="black"/>
<path d="M675.167 64.4666V0.951172H712.205V7.87596H682.31V28.9943H710.037V35.9076H682.31V57.5533H712.639V64.4666H675.167Z" fill="black"/>
<path d="M711.361 58.8375V63.1941H676.434V2.23535H710.927V6.59201H681.032V30.2785H708.759V34.6351H681.032V58.8375H711.361Z" fill="black"/>
<path d="M721.356 64.4666V0.951172H757.539V7.87596H728.499V29.6936H756.489V36.607H728.499V64.4666H721.356Z" fill="black"/>
<path d="M727.233 6.59201V30.9778H755.223V35.3345H727.233V63.1941H722.635V2.23535H756.261V6.59201H727.233Z" fill="black"/>
<path d="M788.85 65.4297C774.815 65.4297 765.39 56.338 765.39 42.8209V0.951172H772.533V42.8095C772.533 52.589 778.637 58.4246 788.85 58.4246C799.062 58.4246 805.258 52.589 805.258 42.8095V0.951172H812.401V42.8095C812.401 56.338 802.941 65.4182 788.85 65.4182V65.4297Z" fill="black"/>
<path d="M766.667 42.8096V2.23535H771.265V42.8096C771.265 52.7382 777.416 59.6973 788.86 59.6973C800.305 59.6973 806.535 52.7267 806.535 42.8096V2.23535H811.133V42.8096C811.133 55.6961 802.21 64.1457 788.86 64.1457C775.51 64.1457 766.678 55.6961 766.678 42.8096H766.667Z" fill="black"/>
<path d="M824.062 64.4666V0.951172H831.204V57.5533H859.799V64.4666H824.062Z" fill="black"/>
<path d="M858.533 58.8375V63.1941H825.34V2.23535H829.938V58.8375H858.533Z" fill="black"/>
<path d="M889.935 64.4666V0.951172H913.999C931.024 0.951172 943.872 14.6059 943.872 32.7089C943.872 50.812 931.024 64.4666 913.999 64.4666H889.935ZM913.999 57.5533C927.007 57.5533 936.82 46.868 936.82 32.7089C936.82 18.5498 927.007 7.8645 913.999 7.8645H897.078V57.5418H913.999V57.5533Z" fill="black"/>
<path d="M942.594 32.709C942.594 49.5165 930.716 63.1827 913.999 63.1827H891.201V2.23535H913.999C930.727 2.23535 942.594 15.9015 942.594 32.709ZM938.087 32.709C938.087 18.2518 928.297 6.59201 913.999 6.59201H895.8V58.8375H913.999C928.297 58.8375 938.087 47.1662 938.087 32.7205V32.709Z" fill="black"/>
<path d="M952.942 64.4666V0.951172H989.981V7.87596H960.074V28.9943H987.813V35.9076H960.074V57.5533H990.414V64.4666H952.942Z" fill="black"/>
<path d="M989.136 58.8375V63.1941H954.209V2.23535H988.703V6.59201H958.807V30.2785H986.535V34.6351H958.807V58.8375H989.136Z" fill="black"/>
<path d="M1018.95 65.4296C1007.37 65.4296 998.63 59.7316 995.549 50.1813L995.229 49.2068L1001.52 45.5037L1001.97 47.0973C1004.05 54.4119 1010.09 58.4475 1018.94 58.4475C1027.79 58.4475 1032.92 54.366 1032.92 47.5329C1032.92 41.4795 1028.15 38.8884 1018.12 35.6897L1017.84 35.598C1007.63 32.2732 997.991 29.1203 997.991 17.6669C997.991 7.27973 1006.07 0.0224609 1017.64 0.0224609C1027.03 0.0224609 1034.76 5.1014 1038.32 13.6083L1038.76 14.6631L1032.61 18.0911L1032.06 16.7612C1030.24 12.3128 1026.25 7.01604 1017.64 7.01604C1010.21 7.01604 1005.22 11.2237 1005.22 17.4949C1005.22 23.7662 1010.52 25.8643 1019.17 28.7305C1029.48 32.1585 1040.15 35.7012 1040.15 47.4527C1040.15 58.2182 1031.63 65.4526 1018.94 65.4526L1018.95 65.4296Z" fill="black"/>
<path d="M996.771 49.7806L1000.75 47.4303C1002.83 54.7449 1008.98 59.7092 1018.95 59.7092C1028.93 59.7092 1034.21 54.4812 1034.21 47.5221C1034.21 40.2075 1027.8 37.4215 1018.52 34.4636C1008.37 31.1502 999.281 28.284 999.281 17.656C999.281 7.64719 1007.34 1.28418 1017.65 1.28418C1027.97 1.28418 1034.21 7.02809 1037.15 14.079L1033.25 16.2573C1031 10.7771 1026.31 5.72109 1017.65 5.72109C1008.99 5.72109 1003.96 10.6854 1003.96 17.4726C1003.96 24.7872 1010.11 27.0458 1018.78 29.9235C1029.53 33.489 1038.89 36.8941 1038.89 47.4303C1038.89 57.9666 1031 64.1461 1018.95 64.1461C1007.6 64.1461 999.543 58.4022 996.771 49.7806Z" fill="black"/>
<path d="M1055.59 0.951172H1048.45V64.4666H1055.59V0.951172Z" fill="black"/>
<path d="M1054.31 2.23535V63.1827H1049.71V2.23535H1054.31Z" fill="black"/>
<path d="M1097.82 65.4304C1078.91 65.4304 1064.65 51.3629 1064.65 32.721C1064.65 14.0791 1078.77 0.0117188 1097.47 0.0117188C1108.82 0.0117188 1119.24 5.8932 1124.66 15.3747L1125.29 16.4638L1118.98 20.2358L1118.35 19.032C1114.55 11.7288 1106.34 7.0053 1097.47 7.0053C1082.83 7.0053 1071.79 18.0574 1071.79 32.721C1071.79 47.3846 1082.74 58.4368 1097.82 58.4368C1110.29 58.4368 1119.43 51.2712 1121.01 40.4484H1095.42V33.535H1128.39V37.1694C1128.39 53.5527 1115.53 65.4418 1097.82 65.4418V65.4304Z" fill="black"/>
<path d="M1127.11 37.1575C1127.11 51.8785 1115.93 64.1459 1097.82 64.1459C1079.71 64.1459 1065.93 50.1243 1065.93 32.7092C1065.93 15.294 1079.02 1.27246 1097.48 1.27246C1108.74 1.27246 1118.54 7.18834 1123.56 15.9819L1119.49 18.4239C1115.51 10.7654 1107.01 5.70937 1097.48 5.70937C1081.54 5.70937 1070.53 17.7246 1070.53 32.6977C1070.53 47.6708 1081.54 59.686 1097.82 59.686C1112.55 59.686 1121.47 50.5485 1122.43 39.141H1096.69V34.7843H1127.11V37.1346V37.1575Z" fill="black"/>
<path d="M1178.36 64.4666L1144.51 14.9039V64.4666H1137.37V0.951172H1143.3L1177.23 50.5368V0.951172H1184.37V64.4666H1178.36Z" fill="black"/>
<path d="M1183.1 2.23535V63.1827H1179.03L1143.23 10.7652V63.1827H1138.64V2.23535H1142.62L1178.49 54.6528V2.23535H1183.09H1183.1Z" fill="black"/>
<path d="M1196.91 64.4666V0.951172H1233.95V7.87596H1204.05V28.9943H1231.78V35.9076H1204.05V57.5533H1234.38V64.4666H1196.91Z" fill="black"/>
<path d="M1233.1 58.8375V63.1941H1198.18V2.23535H1232.67V6.59201H1202.77V30.2785H1230.5V34.6351H1202.77V58.8375H1233.1Z" fill="black"/>
<path d="M1281.95 64.4666L1267.39 39.4732H1250.24V64.4666H1243.1V0.951172H1268.29C1278.88 0.951172 1287.51 9.60716 1287.51 20.258C1287.51 28.3522 1282.36 35.5637 1274.8 38.3152L1290.2 64.4666H1281.95ZM1268.29 32.5599C1274.95 32.5599 1280.37 27.0452 1280.37 20.258C1280.37 13.4708 1274.95 7.8645 1268.29 7.8645H1250.24V32.5599H1268.29Z" fill="black"/>
<path d="M1268.12 38.2007H1248.98V63.1941H1244.38V2.23535H1268.29C1278.17 2.23535 1286.23 10.3296 1286.23 20.2582C1286.23 28.5243 1280.59 35.495 1272.88 37.5816L1287.96 63.1827H1282.68L1268.12 38.1892V38.2007ZM1248.98 33.844H1268.3C1275.68 33.844 1281.65 27.7447 1281.65 20.2582C1281.65 12.7716 1275.68 6.59201 1268.3 6.59201H1248.98V33.844Z" fill="black"/>
<path d="M24.2583 162.927C24.9429 162.927 25.6047 162.892 26.2437 162.847C26.2665 162.503 26.3008 162.147 26.3008 161.803C26.3008 154.512 20.413 148.596 13.1559 148.596C10.8853 148.596 8.76291 149.169 6.8916 150.189L7.29097 151.588C9.36767 158.903 15.4038 162.938 24.2583 162.938V162.927Z" fill="#98A3B2"/>
<path d="M1.34643 155.991C0.490649 157.745 0 159.706 0 161.792C0 169.084 5.88779 175 13.1448 175C17.3553 175 21.0979 172.994 23.5055 169.898C12.8482 169.669 4.68969 164.533 1.34643 155.991Z" fill="#98A3B2"/>
<path d="M24.4864 133.21C15.8373 130.344 10.5428 128.269 10.5428 121.974C10.5428 115.68 15.5292 111.496 22.9574 111.496C31.5722 111.496 35.5545 116.792 37.3802 121.241L37.9279 122.571L44.0781 119.143L43.6331 118.088C40.0844 109.581 32.3482 104.502 22.9574 104.502C11.3872 104.502 3.30859 111.759 3.30859 122.146C3.30859 133.611 12.9504 136.753 23.1628 140.077L23.4366 140.169C33.4664 143.368 38.2359 145.959 38.2359 152.012C38.2359 158.066 33.7859 162.262 26.2436 162.835C26.0382 165.484 25.0455 167.914 23.5165 169.898C23.7675 169.898 24.0071 169.921 24.2696 169.921C36.958 169.921 45.4816 162.686 45.4816 151.921C45.4816 140.169 34.8128 136.627 24.4978 133.199L24.4864 133.21Z" fill="black"/>
<path d="M24.2582 162.927C15.3923 162.927 9.36755 158.891 7.29085 151.576L6.89148 150.178C4.49529 151.485 2.55552 153.525 1.35742 156.002C4.71209 164.555 12.8591 169.679 23.5165 169.909C25.0569 167.925 26.0382 165.495 26.2436 162.846C25.6046 162.892 24.9428 162.927 24.2582 162.927Z" fill="black"/>
<path d="M24.0879 134.425C15.4159 131.548 9.26572 129.289 9.26572 121.975C9.26572 115.187 14.5488 110.223 22.9582 110.223C31.3677 110.223 36.3085 115.268 38.5563 120.759L42.4587 118.581C39.5148 111.53 32.931 105.786 22.9582 105.786C12.9855 105.786 4.58744 112.138 4.58744 122.158C4.58744 132.786 13.6816 135.652 23.8254 138.966C33.1021 141.923 39.5148 144.709 39.5148 152.024C39.5148 159.339 34.4029 164.211 24.259 164.211C14.1152 164.211 8.13609 159.247 6.05939 151.932L2.07715 154.283C4.84988 162.904 12.9057 168.648 24.259 168.648C36.3085 168.648 44.1931 162.033 44.1931 151.932C44.1931 141.832 34.8365 138.002 24.0879 134.425Z" fill="black"/>
<path d="M65.5414 168.97V112.367H46.4746V105.454H91.8311V112.367H72.7757V168.97H65.5414Z" fill="black"/>
<path d="M90.5649 111.095H71.4981V167.697H66.8198V111.095H47.7529V106.738H90.5649V111.095Z" fill="black"/>
<path d="M137.667 168.97L123.107 143.976H105.957V168.97H98.8145V105.454H124.009C134.598 105.454 143.224 114.11 143.224 124.761C143.224 132.855 138.078 140.067 130.513 142.818L145.917 168.97H137.667ZM124.02 137.063C130.672 137.063 136.092 131.548 136.092 124.761C136.092 117.974 130.672 112.367 124.02 112.367H105.969V137.063H124.02Z" fill="black"/>
<path d="M123.849 142.954H104.702V167.947H100.104V107H124.02C133.901 107 141.957 115.094 141.957 125.023C141.957 133.289 136.32 140.26 128.607 142.346L143.691 167.947H138.408L123.849 142.954ZM104.691 138.597H124.02C131.391 138.597 137.37 132.498 137.37 125.011C137.37 117.525 131.391 111.345 124.02 111.345H104.691V138.597Z" fill="black"/>
<path d="M159.096 105.454H151.953V168.97H159.096V105.454Z" fill="black"/>
<path d="M157.818 106.738V167.686H153.22V106.738H157.818Z" fill="black"/>
<path d="M188.215 168.97L164.652 105.454H172.4L191.535 157.963L210.75 105.454H218.407L194.844 168.97H188.215Z" fill="black"/>
<path d="M166.489 106.738H171.51L191.524 161.678L211.629 106.738H216.57L193.954 167.686H189.105L166.489 106.738Z" fill="black"/>
<path d="M231.199 105.454H224.056V168.97H231.199V105.454Z" fill="black"/>
<path d="M229.921 106.738V167.686H225.322V106.738H229.921Z" fill="black"/>
<path d="M284.724 168.97L250.869 119.395V168.97H243.727V105.454H249.66L283.595 155.028V105.454H290.738V168.97H284.724Z" fill="black"/>
<path d="M289.46 106.738V167.686H285.386L249.592 115.268V167.686H244.993V106.738H248.975L284.85 159.156V106.738H289.448H289.46Z" fill="black"/>
<path d="M332.968 169.921C314.061 169.921 299.798 155.853 299.798 137.211C299.798 118.569 313.913 104.502 332.614 104.502C343.968 104.502 354.385 110.383 359.805 119.865L360.433 120.954L354.123 124.726L353.495 123.522C349.696 116.219 341.492 111.496 332.614 111.496C317.975 111.496 306.941 122.548 306.941 137.211C306.941 151.875 317.883 162.927 332.968 162.927C345.44 162.927 354.579 155.761 356.154 144.939H330.572V138.025H363.537V141.66C363.537 158.043 350.677 169.932 332.968 169.932V169.921Z" fill="black"/>
<path d="M362.259 141.649C362.259 156.37 351.077 168.637 332.968 168.637C314.86 168.637 301.076 154.616 301.076 137.2C301.076 119.785 314.164 105.764 332.626 105.764C343.888 105.764 353.69 111.68 358.71 120.473L354.637 122.915C350.655 115.257 342.154 110.201 332.626 110.201C316.686 110.201 305.675 122.216 305.675 137.189C305.675 152.162 316.686 164.177 332.968 164.177C347.699 164.177 356.622 155.04 357.581 143.632H331.839V139.276H362.259V141.626V141.649Z" fill="black"/>
<path d="M395.657 168.97V105.454H431.84V112.367H402.8V134.185H430.801V141.11H402.8V168.97H395.657Z" fill="black"/>
<path d="M401.533 111.095V135.481H429.523V139.838H401.533V167.697H396.935V106.75H430.561V111.107H401.533V111.095Z" fill="black"/>
<path d="M469.654 169.921C451.397 169.921 437.1 155.555 437.1 137.211C437.1 118.867 451.397 104.502 469.654 104.502C487.91 104.502 502.208 118.867 502.208 137.211C502.208 155.555 487.91 169.921 469.654 169.921ZM469.654 111.496C455.402 111.496 444.243 122.788 444.243 137.211C444.243 151.634 455.402 162.927 469.654 162.927C483.905 162.927 495.065 151.634 495.065 137.211C495.065 122.788 483.905 111.496 469.654 111.496Z" fill="black"/>
<path d="M438.366 137.212C438.366 119.797 452.15 105.775 469.654 105.775C487.157 105.775 500.941 119.797 500.941 137.212C500.941 154.627 487.157 168.649 469.654 168.649C452.15 168.649 438.366 154.627 438.366 137.212ZM496.343 137.212C496.343 122.239 484.647 110.224 469.654 110.224C454.66 110.224 442.965 122.239 442.965 137.212C442.965 152.185 454.66 164.2 469.654 164.2C484.647 164.2 496.343 152.185 496.343 137.212Z" fill="black"/>
<path d="M550.132 168.97L535.572 143.976H518.422V168.97H511.279V105.454H536.474C547.062 105.454 555.689 114.11 555.689 124.761C555.689 132.855 550.543 140.067 542.977 142.818L558.382 168.97H550.132ZM536.474 137.063C543.126 137.063 548.546 131.548 548.546 124.761C548.546 117.974 543.126 112.367 536.474 112.367H518.422V137.063H536.474Z" fill="black"/>
<path d="M536.302 142.704H517.155V167.697H512.557V106.75H536.473C546.354 106.75 554.41 114.844 554.41 124.773C554.41 133.039 548.773 140.01 541.06 142.096L556.144 167.697H550.861L536.302 142.704ZM517.144 138.347H536.473C543.844 138.347 549.823 132.248 549.823 124.761C549.823 117.275 543.844 111.095 536.473 111.095H517.144V138.347Z" fill="black"/>
<path d="M680.427 169.921C666.392 169.921 656.967 160.829 656.967 147.312V105.454H664.11V147.312C664.11 157.092 670.214 162.928 680.427 162.928C690.639 162.928 696.835 157.092 696.835 147.312V105.454H703.978V147.312C703.978 160.841 694.519 169.921 680.427 169.921Z" fill="black"/>
<path d="M658.245 147.313V106.738H662.843V147.313C662.843 157.241 668.994 164.2 680.438 164.2C691.883 164.2 698.113 157.23 698.113 147.313V106.738H702.712V147.313C702.712 160.199 693.789 168.649 680.438 168.649C667.088 168.649 658.257 160.199 658.257 147.313H658.245Z" fill="black"/>
<path d="M729.162 168.97V112.367H710.095V105.454H755.451V112.367H736.384V168.97H729.162Z" fill="black"/>
<path d="M754.184 111.095H735.117V167.697H730.439V111.095H711.372V106.738H754.184V111.095Z" fill="black"/>
<path d="M780.531 169.921C768.949 169.921 760.209 164.223 757.128 154.673L756.809 153.698L763.096 149.995L763.552 151.588C765.629 158.903 771.665 162.939 780.519 162.939C789.374 162.939 794.497 158.857 794.497 152.024C794.497 145.971 789.728 143.38 779.698 140.181L779.424 140.089C769.212 136.764 759.57 133.612 759.57 122.158C759.57 111.771 767.649 104.514 779.219 104.514C788.609 104.514 796.334 109.593 799.894 118.1L800.339 119.154L794.189 122.582L793.641 121.252C791.816 116.804 787.834 111.507 779.219 111.507C771.791 111.507 766.804 115.715 766.804 121.986C766.804 128.257 772.099 130.356 780.748 133.222C791.063 136.65 801.731 140.192 801.731 151.944C801.731 162.709 793.208 169.944 780.519 169.944L780.531 169.921Z" fill="black"/>
<path d="M758.349 154.283L762.331 151.932C764.408 159.247 770.558 164.211 780.531 164.211C790.503 164.211 795.786 158.983 795.786 152.024C795.786 144.709 789.374 141.923 780.097 138.966C769.953 135.652 760.859 132.786 760.859 122.158C760.859 112.149 768.915 105.786 779.23 105.786C789.545 105.786 795.786 111.53 798.73 118.581L794.828 120.759C792.58 115.279 787.89 110.223 779.23 110.223C770.569 110.223 765.537 115.187 765.537 121.975C765.537 129.289 771.687 131.548 780.359 134.425C791.108 137.991 800.465 141.396 800.465 151.932C800.465 162.469 792.58 168.648 780.531 168.648C769.177 168.648 761.121 162.904 758.349 154.283Z" fill="black"/>
<path d="M821.814 168.97V112.367H802.747V105.454H848.104V112.367H829.037V168.97H821.814Z" fill="black"/>
<path d="M846.826 111.095H827.759V167.697H823.081V111.095H804.014V106.738H846.826V111.095Z" fill="black"/>
<path d="M891.977 168.97L886.078 153.469H857.415L851.516 168.97H843.928L868.494 105.454H875.09L899.565 168.97H891.977ZM883.454 146.556L871.792 115.979L860.131 146.556H883.465H883.454Z" fill="black"/>
<path d="M886.956 152.185H856.536L850.637 167.686H845.787L869.361 106.738H874.211L897.693 167.686H892.844L886.945 152.185H886.956ZM885.313 147.84L871.792 112.402L858.27 147.84H885.313Z" fill="black"/>
<path d="M946.256 168.97L912.412 119.395V168.97H905.27V105.454H911.203L945.138 155.028V105.454H952.281V168.97H946.256Z" fill="black"/>
<path d="M951.003 106.738V167.686H946.929L911.135 115.268V167.686H906.536V106.738H910.518L946.393 159.156V106.738H950.991H951.003Z" fill="black"/>
<path d="M964.81 168.97V105.454H988.874C1005.9 105.454 1018.75 119.109 1018.75 137.212C1018.75 155.315 1005.9 168.97 988.874 168.97H964.81ZM988.886 162.056C1001.89 162.056 1011.71 151.371 1011.71 137.212C1011.71 123.053 1001.89 112.367 988.886 112.367H971.964V162.045H988.886V162.056Z" fill="black"/>
<path d="M1017.48 137.212C1017.48 154.019 1005.6 167.686 988.886 167.686H966.088V106.738H988.886C1005.61 106.738 1017.48 120.404 1017.48 137.212ZM1012.97 137.212C1012.97 122.755 1003.18 111.095 988.886 111.095H970.686V163.34H988.886C1003.18 163.34 1012.97 151.669 1012.97 137.223V137.212Z" fill="black"/>
<path d="M1034.96 105.454H1027.82V168.97H1034.96V105.454Z" fill="black"/>
<path d="M1033.69 106.738V167.686H1029.1V106.738H1033.69Z" fill="black"/>
<path d="M1088.49 168.97L1054.63 119.395V168.97H1047.49V105.454H1053.42L1087.36 155.028V105.454H1094.5V168.97H1088.49Z" fill="black"/>
<path d="M1093.22 106.738V167.686H1089.15L1053.35 115.268V167.686H1048.76V106.738H1052.74L1088.61 159.156V106.738H1093.21H1093.22Z" fill="black"/>
<path d="M1136.73 169.921C1117.82 169.921 1103.56 155.853 1103.56 137.211C1103.56 118.569 1117.68 104.502 1136.38 104.502C1147.73 104.502 1158.15 110.383 1163.57 119.865L1164.2 120.954L1157.89 124.726L1157.26 123.522C1153.46 116.219 1145.25 111.496 1136.38 111.496C1121.74 111.496 1110.7 122.548 1110.7 137.211C1110.7 151.875 1121.65 162.927 1136.73 162.927C1149.2 162.927 1158.34 155.761 1159.92 144.939H1134.33V138.025H1167.3V141.66C1167.3 158.043 1154.44 169.932 1136.73 169.932V169.921Z" fill="black"/>
<path d="M1166.03 141.649C1166.03 156.37 1154.85 168.637 1136.74 168.637C1118.63 168.637 1104.85 154.616 1104.85 137.2C1104.85 119.785 1117.94 105.764 1136.4 105.764C1147.66 105.764 1157.46 111.68 1162.48 120.473L1158.41 122.915C1154.43 115.257 1145.93 110.201 1136.4 110.201C1120.46 110.201 1109.45 122.216 1109.45 137.189C1109.45 152.162 1120.46 164.177 1136.74 164.177C1151.47 164.177 1160.4 155.04 1161.35 143.632H1135.61V139.276H1166.03V141.626V141.649Z" fill="black"/>
<path d="M1292.31 169.921C1278.28 169.921 1268.85 160.829 1268.85 147.312V105.454H1275.99V147.312C1275.99 157.092 1282.1 162.928 1292.31 162.928C1302.52 162.928 1308.72 157.092 1308.72 147.312V105.454H1315.86V147.312C1315.86 160.841 1306.4 169.921 1292.31 169.921Z" fill="black"/>
<path d="M1270.12 147.313V106.738H1274.72V147.313C1274.72 157.241 1280.87 164.2 1292.31 164.2C1303.76 164.2 1309.99 157.23 1309.99 147.313V106.738H1314.58V147.313C1314.58 160.199 1305.66 168.649 1292.31 168.649C1278.96 168.649 1270.13 160.199 1270.13 147.313H1270.12Z" fill="black"/>
<path d="M1341.05 168.97V112.367H1321.98V105.454H1367.34V112.367H1348.27V168.97H1341.05Z" fill="black"/>
<path d="M1366.06 111.095H1346.99V167.697H1342.31V111.095H1323.25V106.738H1366.06V111.095Z" fill="black"/>
<path d="M1400.21 169.921C1381.5 169.921 1367.39 155.853 1367.39 137.211C1367.39 118.569 1381.51 104.502 1400.21 104.502C1411.6 104.502 1421.98 110.361 1427.31 119.773L1427.94 120.885L1421.63 124.531L1421.01 123.362C1417.18 116.15 1409.01 111.496 1400.21 111.496C1385.57 111.496 1374.54 122.548 1374.54 137.211C1374.54 151.875 1385.57 162.927 1400.21 162.927C1409.12 162.927 1417.35 158.169 1421.18 150.82L1421.8 149.639L1428.11 153.285L1427.5 154.386C1422.22 163.982 1411.77 169.932 1400.22 169.932L1400.21 169.921Z" fill="black"/>
<path d="M1368.67 137.212C1368.67 119.797 1381.76 105.775 1400.22 105.775C1411.4 105.775 1421.19 111.519 1426.21 120.405L1422.14 122.755C1418.16 115.268 1409.75 110.212 1400.22 110.212C1384.28 110.212 1373.27 122.227 1373.27 137.201C1373.27 152.174 1384.28 164.189 1400.22 164.189C1409.84 164.189 1418.33 159.053 1422.32 151.394L1426.4 153.744C1421.45 162.71 1411.57 168.637 1400.22 168.637C1381.76 168.637 1368.67 154.616 1368.67 137.201V137.212Z" fill="black"/>
<path d="M1465.03 169.921C1446.77 169.921 1432.48 155.555 1432.48 137.211C1432.48 118.867 1446.77 104.502 1465.03 104.502C1483.29 104.502 1497.59 118.867 1497.59 137.211C1497.59 155.555 1483.29 169.921 1465.03 169.921ZM1465.03 111.496C1450.78 111.496 1439.62 122.788 1439.62 137.211C1439.62 151.634 1450.78 162.927 1465.03 162.927C1479.28 162.927 1490.44 151.634 1490.44 137.211C1490.44 122.788 1479.28 111.496 1465.03 111.496Z" fill="black"/>
<path d="M1433.76 137.212C1433.76 119.797 1447.54 105.775 1465.04 105.775C1482.55 105.775 1496.33 119.797 1496.33 137.212C1496.33 154.627 1482.55 168.649 1465.04 168.649C1447.54 168.649 1433.76 154.627 1433.76 137.212ZM1491.73 137.212C1491.73 122.239 1480.04 110.224 1465.04 110.224C1450.05 110.224 1438.35 122.239 1438.35 137.212C1438.35 152.185 1450.05 164.2 1465.04 164.2C1480.04 164.2 1491.73 152.185 1491.73 137.212Z" fill="black"/>
<path d="M1556.93 168.97V118.134L1536.48 152.254H1534.26L1513.81 118.134V168.97H1506.67V105.454H1514.38L1535.32 140.307L1556.27 105.454H1564.07V168.97H1556.93Z" fill="black"/>
<path d="M1562.8 167.686H1558.2V113.525L1535.75 150.97H1534.98L1512.53 113.525V167.686H1507.93V106.738H1513.65L1535.32 142.784L1556.99 106.738H1562.8V167.686Z" fill="black"/>
<path d="M1576.6 168.97V105.454H1613.64V112.367H1583.75V133.497H1611.48V140.411H1583.75V162.056H1614.07V168.97H1576.6Z" fill="black"/>
<path d="M1612.81 163.341V167.697H1577.88V106.75H1612.37V111.107H1582.48V134.793H1610.21V139.15H1582.48V163.352H1612.81V163.341Z" fill="black"/>
<path d="M1641.32 111.496C1639.53 111.496 1637.89 111.748 1636.42 112.207C1637.38 118.558 1642.82 123.431 1649.4 123.431C1651.78 123.431 1654 122.789 1655.92 121.688L1655.73 121.253C1653.91 116.804 1649.93 111.508 1641.31 111.508L1641.32 111.496Z" fill="#98A3B2"/>
<path d="M1661.11 116.219C1662.02 114.419 1662.56 112.379 1662.56 110.223C1662.56 102.932 1656.67 97.0156 1649.41 97.0156C1644.07 97.0156 1639.5 100.214 1637.43 104.8C1638.68 104.605 1639.98 104.502 1641.33 104.502C1650.02 104.502 1657.26 108.847 1661.12 116.219H1661.11Z" fill="#98A3B2"/>
<path d="M1642.84 133.21C1634.19 130.344 1628.9 128.268 1628.9 121.974C1628.9 117.216 1631.77 113.651 1636.42 112.206C1636.31 111.553 1636.26 110.899 1636.26 110.223C1636.26 108.285 1636.68 106.462 1637.42 104.8C1627.98 106.244 1621.67 112.974 1621.67 122.146C1621.67 133.611 1631.32 136.752 1641.53 140.077L1641.8 140.169C1651.83 143.368 1656.6 145.959 1656.6 152.012C1656.6 158.845 1651.38 162.927 1642.62 162.927C1633.87 162.927 1627.73 158.891 1625.66 151.577L1625.2 149.983L1618.91 153.686L1619.23 154.661C1622.3 164.211 1631.05 169.909 1642.64 169.909C1655.32 169.909 1663.85 162.675 1663.85 151.909C1663.85 140.158 1653.18 136.615 1642.86 133.187L1642.84 133.21Z" fill="black"/>
<path d="M1636.42 112.206C1637.89 111.748 1639.53 111.495 1641.32 111.495C1649.94 111.495 1653.92 116.792 1655.75 121.24L1655.93 121.676C1658.14 120.403 1659.95 118.5 1661.12 116.207C1657.26 108.835 1650.02 104.49 1641.33 104.49C1639.99 104.49 1638.69 104.593 1637.43 104.788C1636.69 106.439 1636.27 108.274 1636.27 110.211C1636.27 110.888 1636.34 111.553 1636.43 112.195L1636.42 112.206Z" fill="black"/>
<path d="M1673.82 169.83C1676.67 169.83 1678.99 167.504 1678.99 164.636C1678.99 161.768 1676.67 159.442 1673.82 159.442C1670.96 159.442 1668.65 161.768 1668.65 164.636C1668.65 167.504 1670.96 169.83 1673.82 169.83Z" fill="black"/>
<path d="M1669.92 164.636C1669.92 162.458 1671.56 160.715 1673.82 160.715C1676.08 160.715 1677.72 162.458 1677.72 164.636C1677.72 166.814 1675.99 168.557 1673.82 168.557C1671.65 168.557 1669.92 166.814 1669.92 164.636Z" fill="black"/>
<path d="M294.754 5.2627L310.968 15.627L294.754 23.4575L310.968 33.8332L294.754 41.6637L310.968 52.0394L294.754 59.8699" stroke="#98A3B2" stroke-width="2" stroke-linecap="round" stroke-linejoin="round"/>
<path d="M1336.55 112.367L1352.76 122.743L1336.55 130.573L1352.76 140.949L1336.55 148.78L1352.76 159.144L1336.55 166.986" stroke="#98A3B2" stroke-width="2" stroke-linecap="round" stroke-linejoin="round"/>
<path d="M615.194 165.162C630.293 165.162 642.533 152.864 642.533 137.693C642.533 122.521 630.293 110.223 615.194 110.223C600.095 110.223 587.854 122.521 587.854 137.693C587.854 152.864 600.095 165.162 615.194 165.162Z" fill="black"/>
<path d="M615.502 104.502C597.245 104.502 582.948 118.867 582.948 137.211C582.948 155.555 597.245 169.921 615.502 169.921C633.759 169.921 648.056 155.555 648.056 137.211C648.056 118.867 633.759 104.502 615.502 104.502ZM615.502 162.927C601.251 162.927 590.08 151.634 590.08 137.211C590.08 122.788 601.239 111.496 615.502 111.496C629.765 111.496 640.925 122.788 640.925 137.211C640.925 151.634 629.765 162.927 615.502 162.927Z" fill="#98A3B2"/>
<path d="M606.922 133.038C609.178 133.038 611.007 131.2 611.007 128.934C611.007 126.667 609.178 124.829 606.922 124.829C604.666 124.829 602.837 126.667 602.837 128.934C602.837 131.2 604.666 133.038 606.922 133.038Z" fill="#98A3B2"/>
<path d="M624.049 133.038C626.305 133.038 628.134 131.2 628.134 128.934C628.134 126.667 626.305 124.829 624.049 124.829C621.793 124.829 619.964 126.667 619.964 128.934C619.964 131.2 621.793 133.038 624.049 133.038Z" fill="#98A3B2"/>
<path d="M606.922 150.533C609.178 150.533 611.007 148.695 611.007 146.429C611.007 144.162 609.178 142.324 606.922 142.324C604.666 142.324 602.837 144.162 602.837 146.429C602.837 148.695 604.666 150.533 606.922 150.533Z" fill="#98A3B2"/>
<path d="M624.049 150.533C626.305 150.533 628.134 148.695 628.134 146.429C628.134 144.162 626.305 142.324 624.049 142.324C621.793 142.324 619.964 144.162 619.964 146.429C619.964 148.695 621.793 150.533 624.049 150.533Z" fill="#98A3B2"/>
<path d="M607.332 129.484L623.66 145.891" stroke="white" stroke-width="3" stroke-linecap="round" stroke-linejoin="round"/>
<path d="M623.66 129.484L607.332 145.891" stroke="white" stroke-width="3" stroke-linecap="round" stroke-linejoin="round"/>
<path d="M1226.45 165.162C1241.55 165.162 1253.79 152.864 1253.79 137.693C1253.79 122.521 1241.55 110.223 1226.45 110.223C1211.35 110.223 1199.11 122.521 1199.11 137.693C1199.11 152.864 1211.35 165.162 1226.45 165.162Z" fill="black"/>
<path d="M1226.76 104.502C1208.5 104.502 1194.21 118.867 1194.21 137.211C1194.21 155.555 1208.5 169.921 1226.76 169.921C1245.02 169.921 1259.31 155.555 1259.31 137.211C1259.31 118.867 1245.02 104.502 1226.76 104.502ZM1226.76 162.927C1212.51 162.927 1201.34 151.634 1201.34 137.211C1201.34 122.788 1212.5 111.496 1226.76 111.496C1241.02 111.496 1252.18 122.788 1252.18 137.211C1252.18 151.634 1241.02 162.927 1226.76 162.927Z" fill="#98A3B2"/>
<path d="M1218.18 133.038C1220.43 133.038 1222.26 131.2 1222.26 128.934C1222.26 126.667 1220.43 124.829 1218.18 124.829C1215.92 124.829 1214.09 126.667 1214.09 128.934C1214.09 131.2 1215.92 133.038 1218.18 133.038Z" fill="#98A3B2"/>
<path d="M1235.31 133.038C1237.56 133.038 1239.39 131.2 1239.39 128.934C1239.39 126.667 1237.56 124.829 1235.31 124.829C1233.05 124.829 1231.22 126.667 1231.22 128.934C1231.22 131.2 1233.05 133.038 1235.31 133.038Z" fill="#98A3B2"/>
<path d="M1218.18 150.533C1220.43 150.533 1222.26 148.695 1222.26 146.429C1222.26 144.162 1220.43 142.324 1218.18 142.324C1215.92 142.324 1214.09 144.162 1214.09 146.429C1214.09 148.695 1215.92 150.533 1218.18 150.533Z" fill="#98A3B2"/>
<path d="M1235.31 150.533C1237.56 150.533 1239.39 148.695 1239.39 146.429C1239.39 144.162 1237.56 142.324 1235.31 142.324C1233.05 142.324 1231.22 144.162 1231.22 146.429C1231.22 148.695 1233.05 150.533 1235.31 150.533Z" fill="#98A3B2"/>
<path d="M1218.59 129.484L1234.92 145.891" stroke="white" stroke-width="3" stroke-linecap="round" stroke-linejoin="round"/>
<path d="M1234.92 129.484L1218.59 145.891" stroke="white" stroke-width="3" stroke-linecap="round" stroke-linejoin="round"/>
</g>
<defs>
<clipPath id="clip0_337_36929">
<rect width="1679" height="175" fill="white"/>
</clipPath>
</defs>
</svg>
