<svg xmlns="http://www.w3.org/2000/svg" width="127" height="25" viewBox="0 0 127 25" fill="none">
  <g clip-path="url(#clip0_337_36885)">
    <path d="M12.8628 25C5.53259 25 0 19.6184 0 12.4951C0 5.37182 5.53259 0 12.8628 0C17.3268 0 21.3914 2.2407 23.4786 5.8317L23.7282 6.25245L21.2516 7.64188L21.0119 7.20157C19.5039 4.45205 16.3082 2.67123 12.8628 2.67123C7.12047 2.67123 2.79626 6.89824 2.79626 12.4951C2.79626 18.092 7.12047 22.319 12.8528 22.319C16.3481 22.319 19.5638 20.499 21.0718 17.6908L21.3115 17.2407L23.7882 18.6301L23.5485 19.0509C21.4812 22.7202 17.3867 24.9902 12.8628 24.9902V25Z" fill="black"/>
    <path d="M0.499023 12.4951C0.499023 5.84151 5.62217 0.489258 12.8625 0.489258C17.2466 0.489258 21.0815 2.68104 23.0488 6.07634L21.451 6.97654C19.8931 4.1194 16.5975 2.18202 12.8625 2.18202C6.61084 2.18202 2.29662 6.77106 2.29662 12.4951C2.29662 18.2192 6.61084 22.8082 12.8525 22.8082C16.6174 22.8082 19.953 20.8415 21.5109 17.9159L23.1088 18.8161C21.1714 22.2407 17.3065 24.501 12.8525 24.501C5.62217 24.5108 0.499023 19.1488 0.499023 12.4951Z" fill="black"/>
    <path d="M42.4736 24.6294V13.4846H29.6607V24.6294H26.8545V0.363281H29.6607V10.8427H42.4736V0.363281H45.2698V24.6294H42.4736Z" fill="black"/>
    <path d="M44.7712 0.852539V24.1402H42.9736V12.9954H29.1521V24.1402H27.3545V0.852539H29.1521V11.332H42.9736V0.852539H44.7712Z" fill="black"/>
    <path d="M66.3295 24.6294L64.0226 18.7097H52.7976L50.4907 24.6294H47.5146L57.1318 0.363281H59.7183L69.3055 24.6294H66.3295ZM62.9939 16.0678L58.42 4.38481L53.8462 16.0678H62.9839H62.9939Z" fill="black"/>
    <path d="M64.3665 18.2204H52.4524L50.1455 24.1402H48.248L57.4757 0.852539H59.3732L68.5708 24.1402H66.6734L64.3665 18.2204ZM63.7273 16.557L58.4344 3.01497L53.1415 16.557H63.7373H63.7273Z" fill="black"/>
    <path d="M78.6245 25.0019C74.0906 25.0019 70.6651 22.8199 69.4568 19.1702L69.3369 18.7984L71.8036 17.3796L71.9834 17.9863C72.8023 20.7847 75.1591 22.3209 78.6345 22.3209C82.1098 22.3209 84.1071 20.7651 84.1071 18.1526C84.1071 15.8434 82.2396 14.8552 78.3149 13.6321L78.215 13.6027C74.2104 12.3307 70.4354 11.1272 70.4354 6.7534C70.4354 2.7808 73.6012 0.0117188 78.1351 0.0117188C81.8102 0.0117188 84.8462 1.9491 86.2343 5.19763L86.4041 5.5988L83.9973 6.90996L83.7876 6.40115C83.0685 4.69861 81.5106 2.68295 78.1351 2.68295C75.229 2.68295 73.2716 4.28765 73.2716 6.68491C73.2716 9.08217 75.3489 9.88452 78.7343 10.9804C82.7789 12.2916 86.9533 13.6419 86.9533 18.1331C86.9533 22.2426 83.6178 25.0117 78.6445 25.0117L78.6245 25.0019Z" fill="black"/>
    <path d="M69.9375 19.0215L71.4954 18.1214C72.3143 20.9198 74.7211 22.8082 78.6259 22.8082C82.5306 22.8082 84.5979 20.8122 84.5979 18.1507C84.5979 15.3523 82.0812 14.2955 78.4561 13.1605C74.4814 11.8983 70.9162 10.8024 70.9162 6.7417C70.9162 2.91587 74.072 0.489258 78.1166 0.489258C82.1611 0.489258 84.5979 2.68104 85.7563 5.38163L84.2284 6.21333C83.3495 4.11939 81.512 2.1918 78.1166 2.1918C74.7211 2.1918 72.7537 4.09004 72.7537 6.683C72.7537 9.48143 75.1605 10.3425 78.556 11.4384C82.7703 12.7985 86.4354 14.0998 86.4354 18.1214C86.4354 22.1429 83.3496 24.5108 78.6259 24.5108C74.1818 24.5108 71.0161 22.319 69.9375 19.0215Z" fill="black"/>
    <path d="M99.2082 25.0012C93.7156 25.0012 90.0205 21.5277 90.0205 16.3613V0.363281H92.8168V16.3515C92.8168 20.0893 95.2036 22.3202 99.2082 22.3202C103.213 22.3202 105.64 20.0893 105.64 16.3515V0.363281H108.436V16.3515C108.436 21.5179 104.731 24.9915 99.2082 24.9915V25.0012Z" fill="black"/>
    <path d="M90.5117 16.3613V0.852539H92.3093V16.3516C92.3093 20.148 94.7161 22.8095 99.2001 22.8095C103.684 22.8095 106.131 20.148 106.131 16.3516V0.852539H107.928V16.3516C107.928 21.2733 104.433 24.5022 99.2001 24.5022C93.9671 24.5022 90.5117 21.2733 90.5117 16.3516V16.3613Z" fill="black"/>
    <path d="M112.997 24.6294V0.363281H115.793V21.9875H126.998V24.6294H112.997Z" fill="black"/>
    <path d="M126.499 22.4768V24.1402H113.496V0.852539H115.294V22.4768H126.499Z" fill="black"/>
  </g>
  <defs>
    <clipPath id="clip0_337_36885">
      <rect width="127" height="25" fill="white"/>
    </clipPath>
  </defs>
</svg>