<svg width="1920" height="142" viewBox="0 0 1920 142" fill="none" xmlns="http://www.w3.org/2000/svg">
<g clip-path="url(#clip0_337_37065)">
<path d="M37.3477 139.926V2.07471H85.1014C110.171 2.07471 129.086 20.8836 129.086 45.8468C129.086 70.81 110.171 89.446 85.1014 89.446H52.9082V139.891H37.3477V139.926ZM85.1014 74.4404C101.561 74.4404 113.491 62.4083 113.491 45.8468C113.491 29.2853 101.803 17.0803 85.1014 17.0803H52.9082V74.4404H85.1014Z" fill="black"/>
<path d="M232.997 139.926L201.253 85.6773H163.873V139.926H148.312V2.07471H203.259C226.358 2.07471 245.169 20.8836 245.169 43.9797C245.169 61.5439 233.93 77.2064 217.471 83.1879L251.047 139.926H233.066H232.997ZM203.224 70.6717C217.747 70.6717 229.539 58.7087 229.539 43.9797C229.539 29.2507 217.713 17.0803 203.224 17.0803H163.873V70.6717H203.224Z" fill="black"/>
<path d="M327.605 142C287.804 142 256.614 110.813 256.614 71.0174C256.614 31.2214 287.804 0.034668 327.605 0.034668C367.406 0.034668 398.596 31.2214 398.596 71.0174C398.596 110.813 367.406 142 327.605 142ZM327.605 15.2131C296.518 15.2131 272.175 39.7269 272.175 71.0174C272.175 102.308 296.518 126.822 327.605 126.822C358.692 126.822 383.035 102.308 383.035 71.0174C383.035 39.7269 358.692 15.2131 327.605 15.2131Z" fill="black"/>
<path d="M448.908 139.926L397.489 2.07471H414.398L456.135 116.034L498.011 2.07471H514.747L463.328 139.926H448.908Z" fill="black"/>
<path d="M542.617 2.07471H527.057V139.926H542.617V2.07471Z" fill="black"/>
<path d="M569.97 139.926V2.07471H622.461C659.599 2.07471 687.608 31.7056 687.608 70.9829C687.608 110.26 659.599 139.891 622.461 139.891H569.97V139.926ZM622.426 124.92C650.781 124.92 672.186 101.755 672.186 71.0175C672.186 40.2802 650.781 17.1149 622.426 17.1149H585.53V124.92H622.426Z" fill="black"/>
<path d="M707.353 139.926V2.07471H788.129V17.0803H722.948V62.9269H783.427V77.9325H722.948V124.92H789.098V139.926H707.353Z" fill="black"/>
<path d="M851.34 142C826.097 142 807.009 129.622 800.301 108.912L799.609 106.803L813.303 98.7465L814.305 102.204C818.835 118.074 831.975 126.822 851.305 126.822C870.635 126.822 881.804 117.97 881.804 103.138C881.804 89.999 871.396 84.3979 849.542 77.4483L848.919 77.2408C826.65 70.0146 805.626 63.2033 805.626 38.3092C805.626 15.7663 823.261 0 848.47 0C868.94 0 885.815 11.0295 893.561 29.4926L894.529 31.7745L881.112 39.2082L879.937 36.3384C875.96 26.692 867.281 15.1785 848.504 15.1785C832.321 15.1785 821.429 24.3063 821.429 37.8943C821.429 51.4823 832.978 56.0463 851.824 62.2698C874.335 69.7034 897.572 77.4137 897.572 102.896C897.572 126.268 879.003 141.965 851.34 141.965V142Z" fill="black"/>
<path d="M996.538 139.926V17.0803H954.974V2.07471H1053.87V17.0803H1012.31V139.926H996.538Z" fill="black"/>
<path d="M1156.05 139.926V76.6187H1084.68V139.926H1069.12V2.07471H1084.68V61.6131H1156.05V2.07471H1171.61V139.926H1156.05Z" fill="black"/>
<path d="M1198.96 139.926V2.07471H1279.74V17.0803H1214.52V62.9269H1275V77.9325H1214.52V124.92H1280.67V139.926H1198.96Z" fill="black"/>
<path d="M1434.9 139.926L1403.15 85.6773H1365.77V139.926H1350.21V2.07471H1405.16C1428.26 2.07471 1447.07 20.8836 1447.07 43.9797C1447.07 61.5439 1435.83 77.2064 1419.37 83.1879L1452.95 139.926H1434.97H1434.9ZM1405.12 70.6717C1419.65 70.6717 1431.44 58.7087 1431.44 43.9797C1431.44 29.2507 1419.61 17.0803 1405.12 17.0803H1365.77V70.6717H1405.12Z" fill="black"/>
<path d="M1481.58 2.07471H1466.02V139.926H1481.58V2.07471Z" fill="black"/>
<path d="M1573.7 142C1532.48 142 1501.36 111.47 1501.36 71.0174C1501.36 30.5645 1532.13 0.034668 1572.94 0.034668C1597.69 0.034668 1620.41 12.7929 1632.24 33.3651L1633.59 35.7508L1619.83 43.9451L1618.48 41.3519C1610.18 25.482 1592.3 15.2477 1572.94 15.2477C1541.02 15.2477 1516.95 39.2428 1516.95 71.0519C1516.95 102.861 1540.81 126.856 1573.7 126.856C1600.88 126.856 1620.83 111.297 1624.25 87.8209H1568.44V72.8153H1640.33V80.6984C1640.33 116.242 1612.29 142.069 1573.66 142.069L1573.7 142Z" fill="black"/>
<path d="M1746.87 139.926V76.6187H1675.53V139.926H1659.94V2.07471H1675.53V61.6131H1746.87V2.07471H1762.46V139.926H1746.87Z" fill="black"/>
<path d="M1819.28 139.926V17.0803H1777.71V2.07471H1876.61V17.0803H1835.05V139.926H1819.28Z" fill="black"/>
<path d="M326.913 131.628C359.837 131.628 386.528 104.94 386.528 72.0201C386.528 39.0998 359.837 12.4126 326.913 12.4126C293.989 12.4126 267.299 39.0998 267.299 72.0201C267.299 104.94 293.989 131.628 326.913 131.628Z" fill="black"/>
<path d="M327.605 0C287.804 0 256.614 31.1868 256.614 70.9827C256.614 110.779 287.804 141.965 327.605 141.965C367.406 141.965 398.596 110.779 398.596 70.9827C398.596 31.1868 367.406 0 327.605 0ZM327.605 126.787C296.518 126.787 272.175 102.273 272.175 70.9827C272.175 39.6922 296.518 15.1785 327.605 15.1785C358.692 15.1785 383.035 39.6922 383.035 70.9827C383.035 102.273 358.692 126.787 327.605 126.787Z" fill="#98A3B2"/>
<path d="M308.898 61.9584C313.825 61.9584 317.819 57.9646 317.819 53.0381C317.819 48.1115 313.825 44.1177 308.898 44.1177C303.971 44.1177 299.977 48.1115 299.977 53.0381C299.977 57.9646 303.971 61.9584 308.898 61.9584Z" fill="#98A3B2"/>
<path d="M346.243 61.9584C351.17 61.9584 355.164 57.9646 355.164 53.0381C355.164 48.1115 351.17 44.1177 346.243 44.1177C341.316 44.1177 337.321 48.1115 337.321 53.0381C337.321 57.9646 341.316 61.9584 346.243 61.9584Z" fill="#98A3B2"/>
<path d="M308.898 99.9223C313.825 99.9223 317.819 95.9285 317.819 91.0019C317.819 86.0753 313.825 82.0815 308.898 82.0815C303.971 82.0815 299.977 86.0753 299.977 91.0019C299.977 95.9285 303.971 99.9223 308.898 99.9223Z" fill="#98A3B2"/>
<path d="M346.243 99.9223C351.17 99.9223 355.164 95.9285 355.164 91.0019C355.164 86.0753 351.17 82.0815 346.243 82.0815C341.316 82.0815 337.321 86.0753 337.321 91.0019C337.321 95.9285 341.316 99.9223 346.243 99.9223Z" fill="#98A3B2"/>
<path d="M345.379 93.2837C344.48 93.2837 343.615 92.9379 342.924 92.281L307.307 56.6686C305.959 55.3202 305.959 53.142 307.307 51.7935C308.656 50.4451 310.835 50.4451 312.183 51.7935L347.8 87.4059C349.148 88.7544 349.148 90.9326 347.8 92.281C347.108 92.9725 346.243 93.2837 345.344 93.2837H345.379Z" fill="white"/>
<path d="M309.797 93.2837C308.898 93.2837 308.033 92.9379 307.342 92.281C305.993 90.9326 305.993 88.7544 307.342 87.4059L342.958 51.7935C344.307 50.4451 346.485 50.4451 347.834 51.7935C349.182 53.142 349.182 55.3202 347.834 56.6686L312.217 92.281C311.525 92.9725 310.661 93.2837 309.762 93.2837H309.797Z" fill="white"/>
</g>
<defs>
<clipPath id="clip0_337_37065">
<rect width="4691" height="142" fill="white" transform="translate(-2006)"/>
</clipPath>
</defs>
</svg>
