<svg width="1840" height="142" viewBox="0 0 1840 142" fill="none" xmlns="http://www.w3.org/2000/svg">
<g clip-path="url(#clip0_383_1189)">
<path d="M0.347656 139.926V2.07471H48.1014C73.1712 2.07471 92.0861 20.8836 92.0861 45.8468C92.0861 70.81 73.1712 89.446 48.1014 89.446H15.9082V139.891H0.347656V139.926ZM48.1014 74.4404C64.561 74.4404 76.4909 62.4083 76.4909 45.8468C76.4909 29.2853 64.8031 17.0803 48.1014 17.0803H15.9082V74.4404H48.1014Z" fill="black"/>
<path d="M195.997 139.926L164.253 85.6773H126.873V139.926H111.312V2.07471H166.259C189.358 2.07471 208.169 20.8836 208.169 43.9797C208.169 61.5439 196.93 77.2064 180.471 83.1879L214.047 139.926H196.066H195.997ZM166.224 70.6717C180.747 70.6717 192.539 58.7087 192.539 43.9797C192.539 29.2507 180.713 17.0803 166.224 17.0803H126.873V70.6717H166.224Z" fill="black"/>
<path d="M290.605 142C250.804 142 219.614 110.813 219.614 71.0174C219.614 31.2214 250.804 0.034668 290.605 0.034668C330.406 0.034668 361.596 31.2214 361.596 71.0174C361.596 110.813 330.406 142 290.605 142ZM290.605 15.2131C259.518 15.2131 235.175 39.7269 235.175 71.0174C235.175 102.308 259.518 126.822 290.605 126.822C321.692 126.822 346.035 102.308 346.035 71.0174C346.035 39.7269 321.692 15.2131 290.605 15.2131Z" fill="black"/>
<path d="M411.908 139.926L360.489 2.07471H377.398L419.135 116.034L461.011 2.07471H477.747L426.328 139.926H411.908Z" fill="black"/>
<path d="M505.617 2.07471H490.057V139.926H505.617V2.07471Z" fill="black"/>
<path d="M532.97 139.926V2.07471H585.461C622.599 2.07471 650.608 31.7056 650.608 70.9829C650.608 110.26 622.599 139.891 585.461 139.891H532.97V139.926ZM585.426 124.92C613.781 124.92 635.186 101.755 635.186 71.0175C635.186 40.2802 613.781 17.1149 585.426 17.1149H548.53V124.92H585.426Z" fill="black"/>
<path d="M670.353 139.926V2.07471H751.129V17.0803H685.948V62.9269H746.427V77.9325H685.948V124.92H752.098V139.926H670.353Z" fill="black"/>
<path d="M814.34 142C789.097 142 770.009 129.622 763.301 108.912L762.609 106.803L776.303 98.7465L777.305 102.204C781.835 118.074 794.975 126.822 814.305 126.822C833.635 126.822 844.804 117.97 844.804 103.138C844.804 89.999 834.396 84.3979 812.542 77.4483L811.919 77.2408C789.65 70.0146 768.626 63.2033 768.626 38.3092C768.626 15.7663 786.261 0 811.47 0C831.94 0 848.815 11.0295 856.561 29.4926L857.529 31.7745L844.112 39.2082L842.937 36.3384C838.96 26.692 830.281 15.1785 811.504 15.1785C795.321 15.1785 784.429 24.3063 784.429 37.8943C784.429 51.4823 795.978 56.0463 814.824 62.2698C837.335 69.7034 860.572 77.4137 860.572 102.896C860.572 126.268 842.003 141.965 814.34 141.965V142Z" fill="black"/>
<path d="M959.538 139.926V17.0803H917.974V2.07471H1016.87V17.0803H975.306V139.926H959.538Z" fill="black"/>
<path d="M1119.05 139.926V76.6187H1047.68V139.926H1032.12V2.07471H1047.68V61.6131H1119.05V2.07471H1134.61V139.926H1119.05Z" fill="black"/>
<path d="M1161.96 139.926V2.07471H1242.74V17.0803H1177.52V62.9269H1238V77.9325H1177.52V124.92H1243.67V139.926H1161.96Z" fill="black"/>
<path d="M1397.9 139.926L1366.15 85.6773H1328.77V139.926H1313.21V2.07471H1368.16C1391.26 2.07471 1410.07 20.8836 1410.07 43.9797C1410.07 61.5439 1398.83 77.2064 1382.37 83.1879L1415.95 139.926H1397.97H1397.9ZM1368.12 70.6717C1382.65 70.6717 1394.44 58.7087 1394.44 43.9797C1394.44 29.2507 1382.61 17.0803 1368.12 17.0803H1328.77V70.6717H1368.12Z" fill="black"/>
<path d="M1444.58 2.07471H1429.02V139.926H1444.58V2.07471Z" fill="black"/>
<path d="M1536.7 142C1495.48 142 1464.36 111.47 1464.36 71.0174C1464.36 30.5645 1495.13 0.034668 1535.94 0.034668C1560.69 0.034668 1583.41 12.7929 1595.24 33.3651L1596.59 35.7508L1582.83 43.9451L1581.48 41.3519C1573.18 25.482 1555.3 15.2477 1535.94 15.2477C1504.02 15.2477 1479.95 39.2428 1479.95 71.0519C1479.95 102.861 1503.81 126.856 1536.7 126.856C1563.88 126.856 1583.83 111.297 1587.25 87.8209H1531.44V72.8153H1603.33V80.6984C1603.33 116.242 1575.29 142.069 1536.66 142.069L1536.7 142Z" fill="black"/>
<path d="M1709.87 139.926V76.6187H1638.53V139.926H1622.94V2.07471H1638.53V61.6131H1709.87V2.07471H1725.46V139.926H1709.87Z" fill="black"/>
<path d="M1782.28 139.926V17.0803H1740.71V2.07471H1839.61V17.0803H1798.05V139.926H1782.28Z" fill="black"/>
<path d="M289.913 131.628C322.837 131.628 349.528 104.94 349.528 72.0201C349.528 39.0998 322.837 12.4126 289.913 12.4126C256.989 12.4126 230.299 39.0998 230.299 72.0201C230.299 104.94 256.989 131.628 289.913 131.628Z" fill="black"/>
<path d="M290.605 0C250.804 0 219.614 31.1868 219.614 70.9827C219.614 110.779 250.804 141.965 290.605 141.965C330.406 141.965 361.596 110.779 361.596 70.9827C361.596 31.1868 330.406 0 290.605 0ZM290.605 126.787C259.518 126.787 235.175 102.273 235.175 70.9827C235.175 39.6922 259.518 15.1785 290.605 15.1785C321.692 15.1785 346.035 39.6922 346.035 70.9827C346.035 102.273 321.692 126.787 290.605 126.787Z" fill="#98A3B2"/>
<path d="M271.898 61.9584C276.825 61.9584 280.819 57.9646 280.819 53.0381C280.819 48.1115 276.825 44.1177 271.898 44.1177C266.971 44.1177 262.977 48.1115 262.977 53.0381C262.977 57.9646 266.971 61.9584 271.898 61.9584Z" fill="#98A3B2"/>
<path d="M309.243 61.9584C314.17 61.9584 318.164 57.9646 318.164 53.0381C318.164 48.1115 314.17 44.1177 309.243 44.1177C304.316 44.1177 300.321 48.1115 300.321 53.0381C300.321 57.9646 304.316 61.9584 309.243 61.9584Z" fill="#98A3B2"/>
<path d="M271.898 99.9223C276.825 99.9223 280.819 95.9285 280.819 91.0019C280.819 86.0753 276.825 82.0815 271.898 82.0815C266.971 82.0815 262.977 86.0753 262.977 91.0019C262.977 95.9285 266.971 99.9223 271.898 99.9223Z" fill="#98A3B2"/>
<path d="M309.243 99.9223C314.17 99.9223 318.164 95.9285 318.164 91.0019C318.164 86.0753 314.17 82.0815 309.243 82.0815C304.316 82.0815 300.321 86.0753 300.321 91.0019C300.321 95.9285 304.316 99.9223 309.243 99.9223Z" fill="#98A3B2"/>
<path d="M308.379 93.2837C307.48 93.2837 306.615 92.9379 305.924 92.281L270.307 56.6686C268.959 55.3202 268.959 53.142 270.307 51.7935C271.656 50.4451 273.835 50.4451 275.183 51.7935L310.8 87.4059C312.148 88.7544 312.148 90.9326 310.8 92.281C310.108 92.9725 309.243 93.2837 308.344 93.2837H308.379Z" fill="white"/>
<path d="M272.797 93.2837C271.898 93.2837 271.033 92.9379 270.342 92.281C268.993 90.9326 268.993 88.7544 270.342 87.4059L305.958 51.7935C307.307 50.4451 309.485 50.4451 310.834 51.7935C312.182 53.142 312.182 55.3202 310.834 56.6686L275.217 92.281C274.525 92.9725 273.661 93.2837 272.762 93.2837H272.797Z" fill="white"/>
</g>
<defs>
<clipPath id="clip0_383_1189">
<rect width="1840" height="142" fill="white"/>
</clipPath>
</defs>
</svg>
