<svg width="312" height="55" viewBox="0 0 312 55" fill="none" xmlns="http://www.w3.org/2000/svg">
<g clip-path="url(#clip0_337_36861)">
<path d="M0 54.1904V0.8125H18.4033C28.0516 0.8125 35.3302 8.08359 35.3302 17.7218C35.3302 27.36 28.0516 34.5556 18.4033 34.5556H5.76454V54.1998H0V54.1904ZM18.4033 28.9821C24.8731 28.9821 29.5656 24.2479 29.5656 17.7124C29.5656 11.1769 24.8731 6.3672 18.4033 6.3672H5.76454V28.9726H18.3939L18.4033 28.9821Z" fill="black"/>
<path d="M34.3869 17.7107C34.3869 26.7548 27.6349 33.6015 18.4004 33.6015H4.82128V53.2457H0.9375V1.75391H18.4004C27.6444 1.75391 34.3869 8.59118 34.3869 17.7201V17.7107ZM30.5031 17.7107C30.5031 10.5716 25.4439 5.42246 18.4004 5.42246H4.82128V29.9141H18.391C25.4345 29.9141 30.4937 24.7649 30.4937 17.7013L30.5031 17.7107Z" fill="black"/>
<path d="M75.8818 54.1904L63.5628 33.075H48.827V54.1904H43.0625V0.8125H64.2493C73.1453 0.8125 80.3769 8.06473 80.3769 16.9862C80.3769 23.8235 75.9853 29.9063 69.5531 32.1697L82.5491 54.1904H75.8912H75.8818ZM64.2399 27.5109C69.948 27.5109 74.5935 22.7861 74.5935 16.9768C74.5935 11.1674 69.948 6.3672 64.2399 6.3672H48.827V27.5015H64.2399V27.5109Z" fill="black"/>
<path d="M64.096 32.1303H47.8838V53.2457H44V1.75391H64.2464C72.6064 1.75391 79.4336 8.59118 79.4336 16.9845C79.4336 23.9727 74.6659 29.8575 68.1396 31.621L80.9006 53.2457H76.4244L64.1054 32.1303H64.096ZM47.8838 28.4523H64.237C70.4718 28.4523 75.531 23.3031 75.531 16.9751C75.531 10.6471 70.4718 5.42246 64.237 5.42246H47.8838V28.4429V28.4523Z" fill="black"/>
<path d="M112.507 55C97.1322 55 85.0859 42.9192 85.0859 27.5C85.0859 12.0808 97.1322 0 112.507 0C127.883 0 139.929 12.0808 139.929 27.5C139.929 42.9192 127.883 55 112.507 55ZM112.507 5.63958C100.367 5.63958 90.8599 15.2401 90.8599 27.5C90.8599 39.7599 100.367 49.3604 112.507 49.3604C124.648 49.3604 134.164 39.7599 134.164 27.5C134.164 15.2401 124.657 5.63958 112.507 5.63958Z" fill="black"/>
<path d="M86.0234 27.5022C86.0234 12.7903 97.6842 0.945312 112.505 0.945312C127.325 0.945312 138.986 12.7903 138.986 27.5022C138.986 42.2142 127.325 54.0592 112.505 54.0592C97.6842 54.0592 86.0234 42.2142 86.0234 27.5022ZM135.093 27.5022C135.093 14.8462 125.19 4.69874 112.495 4.69874C99.8 4.69874 89.9072 14.8462 89.9072 27.5022C89.9072 40.1583 99.8094 50.3057 112.495 50.3057C125.181 50.3057 135.093 40.1583 135.093 27.5022Z" fill="black"/>
<path d="M157.985 55.0015C150.265 55.0015 144.359 51.663 141.792 45.8348L141.453 45.0709L146.418 42.0814L146.823 43.1093C148.863 48.2679 154.017 49.3525 157.976 49.3525C165.348 49.3525 169.58 45.6179 169.58 39.1107V0.8125H175.42V39.1295C175.42 48.7772 168.574 55.0015 157.976 55.0015H157.985Z" fill="black"/>
<path d="M142.648 45.4465L145.949 43.4566C147.783 48.0871 152.184 50.2939 157.977 50.2939C165.462 50.2939 170.521 46.465 170.521 39.109V1.75391H174.48V39.1279C174.48 48.983 167.07 54.0567 157.977 54.0567C150.933 54.0567 145.14 51.1143 142.648 45.4465Z" fill="black"/>
<path d="M185.5 54.1904V0.8125H216.58V6.37663H191.265V24.5025H214.746V30.0666H191.265V48.6263H216.946V54.1904H185.5Z" fill="black"/>
<path d="M216.003 49.5677V53.2457H186.438V1.75391H215.636V5.43189H190.331V25.4439H213.803V29.1219H190.331V49.5771H216.003V49.5677Z" fill="black"/>
<path d="M248.939 55C233.178 55 221.301 43.1739 221.301 27.5C221.301 11.8261 233.178 0 248.939 0C258.531 0 267.276 4.92284 271.762 12.8352L272.222 13.6557L267.126 16.5981L266.665 15.7399C263.392 9.60991 256.433 5.64901 248.939 5.64901C236.469 5.64901 227.065 15.0514 227.065 27.5094C227.065 39.9674 236.469 49.3699 248.939 49.3699C256.527 49.3699 263.543 45.3241 266.806 39.0621L267.257 38.1944L272.354 41.1274L271.903 41.9384C267.455 50.0017 258.653 55 248.929 55H248.939Z" fill="black"/>
<path d="M222.232 27.5022C222.232 12.7903 233.31 0.945312 248.93 0.945312C258.39 0.945312 266.684 5.80214 270.934 13.2996L267.483 15.2894C264.107 8.96143 256.998 4.69874 248.92 4.69874C235.426 4.69874 226.106 14.8462 226.106 27.5022C226.106 40.1583 235.426 50.3057 248.92 50.3057C257.064 50.3057 264.248 45.9676 267.624 39.4887L271.076 41.4786C266.891 49.0515 258.531 54.0592 248.92 54.0592C233.3 54.0592 222.223 42.2142 222.223 27.5022H222.232Z" fill="black"/>
<path d="M290.024 54.1904V6.37663H273.887V0.8125H312V6.37663H295.863V54.1904H290.024Z" fill="black"/>
<path d="M311.061 5.43189H294.924V53.2457H290.965V5.43189H274.828V1.75391H311.061V5.43189Z" fill="black"/>
</g>
<defs>
<clipPath id="clip0_337_36861">
<rect width="312" height="55" fill="white"/>
</clipPath>
</defs>
</svg>
