<svg width="383" height="55" viewBox="0 0 383 55" fill="none" xmlns="http://www.w3.org/2000/svg">
<g clip-path="url(#clip0_337_36905)">
<path d="M32.0177 54.2321L20.1846 34.006H7.87491V54.2321H0V0.765625H21.5109C30.6914 0.765625 38.1726 8.24679 38.1726 17.4273C38.1726 23.9966 34.2351 29.8821 28.3082 32.5554L41.136 54.2321H32.0177ZM21.5109 26.3383C26.3602 26.3383 30.2977 22.3387 30.2977 17.4273C30.2977 12.5158 26.3602 8.4333 21.5109 8.4333H7.87491V26.3383H21.5109Z" fill="white"/>
<path d="M21.3846 31.9355H5.80053V52.1616H2.07031V2.83984H21.5089C29.5496 2.83984 36.0982 9.38845 36.0982 17.4291C36.0982 24.1228 31.5183 29.7596 25.2391 31.4589L37.5074 52.1823H33.2176L21.3846 31.9563V31.9355ZM5.80053 28.4126H21.5089C27.498 28.4126 32.368 23.4804 32.368 17.4291C32.368 11.3779 27.498 6.36283 21.5089 6.36283H5.80053V28.4126Z" fill="white"/>
<path d="M43.1875 54.2321V0.765625H75.371V8.4333H51.0624V23.4578H73.6095V31.1255H51.0624V46.5644H75.7233V54.2321H43.1875Z" fill="white"/>
<path d="M73.6489 48.6386V52.1616H45.2578V2.83984H73.2966V6.36283H48.988V25.532H71.5351V29.055H48.988V48.6386H73.6489Z" fill="white"/>
<path d="M115.285 54.2321L110.498 41.6944H88.6137L83.8266 54.2321H75.4336L96.1985 0.765625H102.975L123.678 54.2321H115.285ZM107.555 34.0267L99.5764 13.2204L91.5979 34.0267H107.555Z" fill="white"/>
<path d="M111.909 39.6239H87.1855L82.3984 52.1616H78.4609L97.6094 2.83984H101.547L120.633 52.1616H116.696L111.909 39.6239ZM110.582 36.101L99.5988 7.41972L88.6154 36.101H110.603H110.582Z" fill="white"/>
<path d="M148.9 55C133.109 55 121.172 43.1669 121.172 27.5C121.172 11.8331 133.109 0 148.9 0C158.536 0 167.323 4.93218 171.841 12.89L172.856 14.6929L165.914 18.6925L164.898 16.8067C161.956 11.315 155.676 7.75057 148.9 7.75057C137.398 7.75057 129.067 16.0607 129.067 27.5207C129.067 38.9808 137.419 47.2909 148.9 47.2909C155.759 47.2909 162.101 43.6643 165.023 38.0482L166.017 36.1417L172.96 40.1413L171.965 41.9235C167.489 50.0056 158.64 55.0414 148.879 55.0414L148.9 55Z" fill="white"/>
<path d="M123.266 27.5019C123.266 13.4099 133.897 2.07422 148.921 2.07422C158.019 2.07422 165.977 6.71627 170.059 13.9073L166.743 15.8139C163.511 9.76261 156.672 5.65937 148.921 5.65937C135.948 5.65937 127.017 15.3787 127.017 27.5019C127.017 39.6251 135.969 49.3444 148.921 49.3444C156.734 49.3444 163.635 45.179 166.888 38.9827L170.204 40.8892C166.184 48.1424 158.164 52.9295 148.921 52.9295C133.917 52.9295 123.266 41.5938 123.266 27.5019Z" fill="white"/>
<path d="M209.326 54.2321V30.6281H184.81V54.2321H176.914V0.765625H184.81V22.9604H209.326V0.765625H217.2V54.2321H209.326Z" fill="white"/>
<path d="M215.13 2.83984V52.1616H211.4V28.5576H182.718V52.1616H178.988V2.83984H182.718V25.0346H211.4V2.83984H215.13Z" fill="white"/>
<path d="M268.824 55C253.406 55 241.324 42.9182 241.324 27.5C241.324 12.0818 253.406 0 268.824 0C284.242 0 296.324 12.0818 296.324 27.5C296.324 42.9182 284.242 55 268.824 55ZM268.824 7.72984C257.82 7.72984 249.199 16.413 249.199 27.5C249.199 38.587 257.82 47.2702 268.824 47.2702C279.828 47.2702 288.449 38.587 288.449 27.5C288.449 16.413 279.828 7.72984 268.824 7.72984Z" fill="white"/>
<path d="M243.398 27.5019C243.398 13.4099 254.61 2.07422 268.826 2.07422C283.042 2.07422 294.254 13.4099 294.254 27.5019C294.254 41.5938 283.042 52.9295 268.826 52.9295C254.61 52.9295 243.398 41.5938 243.398 27.5019ZM290.524 27.5019C290.524 15.3787 281.011 5.65937 268.826 5.65937C256.641 5.65937 247.129 15.3787 247.129 27.5019C247.129 39.6251 256.641 49.3444 268.826 49.3444C281.011 49.3444 290.524 39.6251 290.524 27.5019Z" fill="white"/>
<path d="M320.695 54.9989C308.676 54.9989 300.594 47.2276 300.594 35.6639V0.765625H308.469V35.6639C308.469 43.0414 312.924 47.2483 320.695 47.2483C328.467 47.2483 333.005 43.0207 333.005 35.6639V0.765625H340.88V35.6639C340.88 47.2276 332.777 54.9989 320.695 54.9989Z" fill="white"/>
<path d="M302.645 35.6865V2.83984H306.375V35.6658C306.375 43.7065 311.369 49.3225 320.674 49.3225C329.979 49.3225 335.056 43.6857 335.056 35.6658V2.83984H338.786V35.6658C338.786 46.0897 331.533 52.9284 320.674 52.9284C309.815 52.9284 302.645 46.0897 302.645 35.6658V35.6865Z" fill="white"/>
<path d="M359.259 54.2321V8.4333H343.758V0.765625H382.718V8.4333H367.217V54.2321H359.259Z" fill="white"/>
<path d="M380.647 6.36283H365.146V52.1616H361.333V6.36283H345.832V2.83984H380.627V6.36283H380.647Z" fill="white"/>
</g>
<defs>
<clipPath id="clip0_337_36905">
<rect width="382.72" height="55" fill="white"/>
</clipPath>
</defs>
</svg>
